<?xml version="1.0" standalone="no"?>
<svg xmlns:xlink="http://www.w3.org/1999/xlink" id="wave" style="transform:rotate(0deg); transition: 0.3s" viewBox="0 0 1440 490" version="1.1" xmlns="http://www.w3.org/2000/svg"><defs><linearGradient id="sw-gradient-0" x1="0" x2="0" y1="1" y2="0"><stop stop-color="rgba(223.481, 54.327, 0, 1)" offset="0%"/><stop stop-color="rgba(221.204, 77.426, 13.807, 1)" offset="100%"/></linearGradient></defs><path style="transform:translate(0, 0px); opacity:1" fill="url(#sw-gradient-0)" d="M0,49L60,73.5C120,98,240,147,360,179.7C480,212,600,229,720,212.3C840,196,960,147,1080,138.8C1200,131,1320,163,1440,179.7C1560,196,1680,196,1800,236.8C1920,278,2040,359,2160,392C2280,425,2400,408,2520,408.3C2640,408,2760,425,2880,359.3C3000,294,3120,147,3240,89.8C3360,33,3480,65,3600,98C3720,131,3840,163,3960,196C4080,229,4200,261,4320,261.3C4440,261,4560,229,4680,204.2C4800,180,4920,163,5040,130.7C5160,98,5280,49,5400,65.3C5520,82,5640,163,5760,171.5C5880,180,6000,114,6120,130.7C6240,147,6360,245,6480,277.7C6600,310,6720,278,6840,253.2C6960,229,7080,212,7200,220.5C7320,229,7440,261,7560,228.7C7680,196,7800,98,7920,98C8040,98,8160,196,8280,269.5C8400,343,8520,392,8580,416.5L8640,441L8640,490L8580,490C8520,490,8400,490,8280,490C8160,490,8040,490,7920,490C7800,490,7680,490,7560,490C7440,490,7320,490,7200,490C7080,490,6960,490,6840,490C6720,490,6600,490,6480,490C6360,490,6240,490,6120,490C6000,490,5880,490,5760,490C5640,490,5520,490,5400,490C5280,490,5160,490,5040,490C4920,490,4800,490,4680,490C4560,490,4440,490,4320,490C4200,490,4080,490,3960,490C3840,490,3720,490,3600,490C3480,490,3360,490,3240,490C3120,490,3000,490,2880,490C2760,490,2640,490,2520,490C2400,490,2280,490,2160,490C2040,490,1920,490,1800,490C1680,490,1560,490,1440,490C1320,490,1200,490,1080,490C960,490,840,490,720,490C600,490,480,490,360,490C240,490,120,490,60,490L0,490Z"/><defs><linearGradient id="sw-gradient-1" x1="0" x2="0" y1="1" y2="0"><stop stop-color="rgba(212.097, 57.954, 8.448, 1)" offset="0%"/><stop stop-color="rgba(255, 110.645, 11, 1)" offset="100%"/></linearGradient></defs><path style="transform:translate(0, 50px); opacity:0.9" fill="url(#sw-gradient-1)" d="M0,0L60,49C120,98,240,196,360,236.8C480,278,600,261,720,253.2C840,245,960,245,1080,277.7C1200,310,1320,376,1440,383.8C1560,392,1680,343,1800,334.8C1920,327,2040,359,2160,334.8C2280,310,2400,229,2520,196C2640,163,2760,180,2880,220.5C3000,261,3120,327,3240,334.8C3360,343,3480,294,3600,253.2C3720,212,3840,180,3960,179.7C4080,180,4200,212,4320,196C4440,180,4560,114,4680,114.3C4800,114,4920,180,5040,171.5C5160,163,5280,82,5400,40.8C5520,0,5640,0,5760,65.3C5880,131,6000,261,6120,285.8C6240,310,6360,229,6480,220.5C6600,212,6720,278,6840,285.8C6960,294,7080,245,7200,220.5C7320,196,7440,196,7560,228.7C7680,261,7800,327,7920,326.7C8040,327,8160,261,8280,220.5C8400,180,8520,163,8580,155.2L8640,147L8640,490L8580,490C8520,490,8400,490,8280,490C8160,490,8040,490,7920,490C7800,490,7680,490,7560,490C7440,490,7320,490,7200,490C7080,490,6960,490,6840,490C6720,490,6600,490,6480,490C6360,490,6240,490,6120,490C6000,490,5880,490,5760,490C5640,490,5520,490,5400,490C5280,490,5160,490,5040,490C4920,490,4800,490,4680,490C4560,490,4440,490,4320,490C4200,490,4080,490,3960,490C3840,490,3720,490,3600,490C3480,490,3360,490,3240,490C3120,490,3000,490,2880,490C2760,490,2640,490,2520,490C2400,490,2280,490,2160,490C2040,490,1920,490,1800,490C1680,490,1560,490,1440,490C1320,490,1200,490,1080,490C960,490,840,490,720,490C600,490,480,490,360,490C240,490,120,490,60,490L0,490Z"/><defs><linearGradient id="sw-gradient-2" x1="0" x2="0" y1="1" y2="0"><stop stop-color="rgba(230.311, 75.727, 26.079, 1)" offset="0%"/><stop stop-color="rgba(255, 179, 11, 1)" offset="100%"/></linearGradient></defs><path style="transform:translate(0, 100px); opacity:0.8" fill="url(#sw-gradient-2)" d="M0,49L60,81.7C120,114,240,180,360,204.2C480,229,600,212,720,245C840,278,960,359,1080,334.8C1200,310,1320,180,1440,106.2C1560,33,1680,16,1800,8.2C1920,0,2040,0,2160,32.7C2280,65,2400,131,2520,138.8C2640,147,2760,98,2880,114.3C3000,131,3120,212,3240,220.5C3360,229,3480,163,3600,130.7C3720,98,3840,98,3960,106.2C4080,114,4200,131,4320,171.5C4440,212,4560,278,4680,294C4800,310,4920,278,5040,228.7C5160,180,5280,114,5400,73.5C5520,33,5640,16,5760,40.8C5880,65,6000,131,6120,130.7C6240,131,6360,65,6480,106.2C6600,147,6720,294,6840,294C6960,294,7080,147,7200,122.5C7320,98,7440,196,7560,245C7680,294,7800,294,7920,261.3C8040,229,8160,163,8280,122.5C8400,82,8520,65,8580,57.2L8640,49L8640,490L8580,490C8520,490,8400,490,8280,490C8160,490,8040,490,7920,490C7800,490,7680,490,7560,490C7440,490,7320,490,7200,490C7080,490,6960,490,6840,490C6720,490,6600,490,6480,490C6360,490,6240,490,6120,490C6000,490,5880,490,5760,490C5640,490,5520,490,5400,490C5280,490,5160,490,5040,490C4920,490,4800,490,4680,490C4560,490,4440,490,4320,490C4200,490,4080,490,3960,490C3840,490,3720,490,3600,490C3480,490,3360,490,3240,490C3120,490,3000,490,2880,490C2760,490,2640,490,2520,490C2400,490,2280,490,2160,490C2040,490,1920,490,1800,490C1680,490,1560,490,1440,490C1320,490,1200,490,1080,490C960,490,840,490,720,490C600,490,480,490,360,490C240,490,120,490,60,490L0,490Z"/><defs><linearGradient id="sw-gradient-3" x1="0" x2="0" y1="1" y2="0"><stop stop-color="rgba(243, 106, 62, 1)" offset="0%"/><stop stop-color="rgba(255, 179, 11, 1)" offset="100%"/></linearGradient></defs><path style="transform:translate(0, 150px); opacity:0.7" fill="url(#sw-gradient-3)" d="M0,147L60,163.3C120,180,240,212,360,261.3C480,310,600,376,720,334.8C840,294,960,147,1080,98C1200,49,1320,98,1440,138.8C1560,180,1680,212,1800,212.3C1920,212,2040,180,2160,163.3C2280,147,2400,147,2520,179.7C2640,212,2760,278,2880,310.3C3000,343,3120,343,3240,318.5C3360,294,3480,245,3600,236.8C3720,229,3840,261,3960,302.2C4080,343,4200,392,4320,359.3C4440,327,4560,212,4680,204.2C4800,196,4920,294,5040,318.5C5160,343,5280,294,5400,285.8C5520,278,5640,310,5760,277.7C5880,245,6000,147,6120,163.3C6240,180,6360,310,6480,351.2C6600,392,6720,343,6840,294C6960,245,7080,196,7200,155.2C7320,114,7440,82,7560,81.7C7680,82,7800,114,7920,171.5C8040,229,8160,310,8280,318.5C8400,327,8520,261,8580,228.7L8640,196L8640,490L8580,490C8520,490,8400,490,8280,490C8160,490,8040,490,7920,490C7800,490,7680,490,7560,490C7440,490,7320,490,7200,490C7080,490,6960,490,6840,490C6720,490,6600,490,6480,490C6360,490,6240,490,6120,490C6000,490,5880,490,5760,490C5640,490,5520,490,5400,490C5280,490,5160,490,5040,490C4920,490,4800,490,4680,490C4560,490,4440,490,4320,490C4200,490,4080,490,3960,490C3840,490,3720,490,3600,490C3480,490,3360,490,3240,490C3120,490,3000,490,2880,490C2760,490,2640,490,2520,490C2400,490,2280,490,2160,490C2040,490,1920,490,1800,490C1680,490,1560,490,1440,490C1320,490,1200,490,1080,490C960,490,840,490,720,490C600,490,480,490,360,490C240,490,120,490,60,490L0,490Z"/></svg>